<?xml version="1.0" encoding="utf-8"?>
<!-- Generator: Adobe Illustrator 16.0.0, SVG Export Plug-In . SVG Version: 6.00 Build 0)  -->
<!DOCTYPE svg PUBLIC "-//W3C//DTD SVG 1.1//EN" "http://www.w3.org/Graphics/SVG/1.1/DTD/svg11.dtd">
<svg version="1.1" id="Layer_1" xmlns="http://www.w3.org/2000/svg" xmlns:xlink="http://www.w3.org/1999/xlink" x="0px" y="0px"
	 width="184.467px" height="31.494px" viewBox="0 0 184.467 31.494" enable-background="new 0 0 184.467 31.494"
	 xml:space="preserve">
<path fill="#B31217" d="M184.467,27.115c0,2.419-1.96,4.379-4.379,4.379H4.379C1.96,31.494,0,29.534,0,27.115V4.379
	C0,1.961,1.96,0,4.379,0h175.708c2.418,0,4.379,1.961,4.379,4.379L184.467,27.115L184.467,27.115z"/>
<g>
	<path fill="#FFFFFF" d="M29.64,16.604c-0.044-1.193-0.088-2.625-0.088-4.083h-0.029c-0.324,1.268-0.737,2.682-1.12,3.847
		l-1.208,3.875h-1.753l-1.061-3.831c-0.324-1.179-0.648-2.579-0.898-3.891h-0.03c-0.044,1.341-0.103,2.874-0.163,4.111l-0.191,3.771
		h-2.078l0.634-9.931h2.991l0.973,3.33c0.324,1.135,0.619,2.372,0.84,3.536h0.059c0.265-1.148,0.604-2.445,0.943-3.565l1.046-3.301
		h2.947l0.53,9.931h-2.181L29.64,16.604z"/>
	<path fill="#FFFFFF" d="M37.727,10.474v9.932h-2.24v-9.932H37.727z"/>
	<path fill="#FFFFFF" d="M41.513,18.106c0.59,0.31,1.533,0.619,2.491,0.619c1.031,0,1.576-0.429,1.576-1.093
		c0-0.604-0.471-0.973-1.665-1.385c-1.65-0.59-2.741-1.503-2.741-2.962c0-1.694,1.43-2.977,3.758-2.977
		c1.135,0,1.945,0.221,2.534,0.501l-0.501,1.798c-0.383-0.191-1.105-0.472-2.063-0.472c-0.973,0-1.444,0.457-1.444,0.958
		c0,0.634,0.545,0.913,1.842,1.414c1.753,0.648,2.564,1.562,2.564,2.979c0,1.664-1.268,3.078-3.994,3.078
		c-1.135,0-2.255-0.311-2.814-0.618L41.513,18.106z"/>
	<path fill="#FFFFFF" d="M50.47,18.106c0.59,0.31,1.533,0.619,2.491,0.619c1.031,0,1.576-0.429,1.576-1.093
		c0-0.604-0.471-0.973-1.665-1.385c-1.65-0.59-2.741-1.503-2.741-2.962c0-1.694,1.43-2.977,3.758-2.977
		c1.135,0,1.945,0.221,2.534,0.501l-0.501,1.798c-0.383-0.191-1.105-0.472-2.063-0.472c-0.973,0-1.444,0.457-1.444,0.958
		c0,0.634,0.545,0.913,1.842,1.414c1.753,0.648,2.564,1.562,2.564,2.979c0,1.664-1.268,3.078-3.994,3.078
		c-1.135,0-2.255-0.311-2.814-0.618L50.47,18.106z"/>
	<path fill="#FFFFFF" d="M61.42,10.474v9.932h-2.24v-9.932H61.42z"/>
	<path fill="#FFFFFF" d="M69.347,20.567c-2.932,0-4.671-2.228-4.671-5.055c0-2.977,1.916-5.201,4.833-5.201
		c3.05,0,4.715,2.284,4.715,5.024c0,3.271-1.96,5.23-4.863,5.23h-0.014V20.567z M69.45,18.784c1.518,0,2.387-1.43,2.387-3.374
		c0-1.783-0.839-3.315-2.387-3.315c-1.547,0-2.417,1.503-2.417,3.359c0,1.871,0.899,3.33,2.402,3.33H69.45z"/>
	<path fill="#FFFFFF" d="M77.463,20.405v-9.932h2.623l2.063,3.64c0.589,1.046,1.164,2.285,1.621,3.404h0.03
		c-0.133-1.312-0.177-2.65-0.177-4.156v-2.888h2.063v9.932h-2.358l-2.122-3.831c-0.589-1.076-1.252-2.343-1.724-3.507h-0.059
		c0.074,1.326,0.103,2.726,0.103,4.347v2.991H77.463z"/>
	<path fill="#FFFFFF" d="M100.466,20.405c-0.206-0.221-0.413-0.441-0.647-0.707c-0.647,0.501-1.547,0.869-2.727,0.869
		c-2.403,0-3.465-1.414-3.465-2.814c0-1.312,0.752-2.255,1.887-2.858V14.85c-0.427-0.471-0.751-1.208-0.751-1.915
		c0-1.268,0.988-2.623,2.992-2.623c1.532,0,2.683,0.898,2.683,2.328c0,1.002-0.59,1.856-1.961,2.55v0.059
		c0.562,0.634,1.164,1.355,1.65,1.855c0.398-0.619,0.708-1.531,0.84-2.417h2.004c-0.265,1.504-0.766,2.787-1.65,3.772
		c0.562,0.634,1.136,1.282,1.754,1.944h-2.608V20.405z M97.416,18.947c0.574,0,1.061-0.222,1.355-0.503
		c-0.619-0.604-1.43-1.519-2.241-2.43c-0.413,0.293-0.796,0.721-0.796,1.37c0,0.854,0.635,1.562,1.666,1.562L97.416,18.947
		L97.416,18.947z M97.667,11.711c-0.575,0-0.884,0.486-0.884,1.018c0,0.501,0.221,0.942,0.678,1.429
		c0.723-0.501,1.09-0.884,1.09-1.459c0-0.472-0.279-0.987-0.869-0.987L97.667,11.711L97.667,11.711z"/>
	<path fill="#FFFFFF" d="M112.445,20.405l-3.185-9.932h2.461l1.208,4.199c0.34,1.194,0.648,2.313,0.885,3.552h0.045
		c0.25-1.191,0.56-2.373,0.897-3.507l1.269-4.244h2.387l-3.346,9.932H112.445z"/>
	<path fill="#FFFFFF" d="M123.494,10.474v9.932h-2.24v-9.932H123.494z"/>
	<path fill="#FFFFFF" d="M127.279,18.106c0.59,0.31,1.533,0.619,2.49,0.619c1.031,0,1.576-0.429,1.576-1.093
		c0-0.604-0.472-0.973-1.665-1.385c-1.649-0.59-2.739-1.503-2.739-2.962c0-1.694,1.429-2.977,3.756-2.977
		c1.136,0,1.945,0.221,2.535,0.501l-0.5,1.798c-0.383-0.191-1.105-0.472-2.063-0.472c-0.974,0-1.444,0.457-1.444,0.958
		c0,0.634,0.545,0.913,1.842,1.414c1.754,0.648,2.564,1.562,2.564,2.979c0,1.664-1.268,3.078-3.994,3.078
		c-1.134,0-2.254-0.311-2.814-0.618L127.279,18.106z"/>
	<path fill="#FFFFFF" d="M139.184,10.474v9.932h-2.238v-9.932H139.184z"/>
	<path fill="#FFFFFF" d="M147.109,20.567c-2.933,0-4.67-2.228-4.67-5.055c0-2.977,1.916-5.201,4.832-5.201
		c3.051,0,4.715,2.284,4.715,5.024c0,3.271-1.959,5.23-4.861,5.23h-0.016V20.567L147.109,20.567z M147.214,18.784
		c1.519,0,2.388-1.43,2.388-3.374c0-1.783-0.841-3.315-2.388-3.315s-2.417,1.503-2.417,3.359c0,1.871,0.898,3.33,2.402,3.33H147.214
		z"/>
	<path fill="#FFFFFF" d="M155.229,20.405v-9.932h2.623l2.062,3.64c0.59,1.046,1.162,2.285,1.619,3.404h0.031
		c-0.134-1.312-0.178-2.65-0.178-4.156v-2.888h2.062v9.932h-2.357l-2.122-3.831c-0.589-1.076-1.252-2.343-1.724-3.507h-0.059
		c0.072,1.326,0.103,2.726,0.103,4.347v2.991H155.229z"/>
</g>
<g id="wlnt6M_1_">
	
		<image overflow="visible" width="217" height="143" id="wlnt6M_2_" xlink:href="901B49E02380F840.jpg"  transform="matrix(1 0 0 1 -8 32.5)">
	</image>
</g>
</svg>
