<?xml version="1.0" encoding="utf-8"?>
<!-- Generator: Adobe Illustrator 16.0.0, SVG Export Plug-In . SVG Version: 6.00 Build 0)  -->
<!DOCTYPE svg PUBLIC "-//W3C//DTD SVG 1.1//EN" "http://www.w3.org/Graphics/SVG/1.1/DTD/svg11.dtd">
<svg version="1.1" id="Layer_1" xmlns="http://www.w3.org/2000/svg" xmlns:xlink="http://www.w3.org/1999/xlink" x="0px" y="0px"
	 width="121px" height="34px" viewBox="0 0 121 34" enable-background="new 0 0 121 34" xml:space="preserve">
<g>
	<g>
		<g>
			<g>
				<g>
					<path fill="#FFFFFF" d="M62.244,23.164h0.948v0.672h-1.742v-3.048h0.793V23.164z"/>
					<path fill="#FFFFFF" d="M66.828,22.256c0,0.985-0.705,1.682-1.684,1.682c-0.979,0-1.684-0.696-1.684-1.682
						c0-0.92,0.809-1.568,1.684-1.568C66.019,20.688,66.828,21.336,66.828,22.256z M64.284,22.26c0,0.525,0.385,0.909,0.859,0.909
						c0.472,0,0.861-0.384,0.861-0.909c0-0.421-0.389-0.803-0.861-0.803C64.669,21.457,64.284,21.839,64.284,22.26z"/>
					<path fill="#FFFFFF" d="M70.395,22.134c-0.009,0.445-0.042,0.827-0.311,1.206c-0.298,0.416-0.75,0.598-1.257,0.598
						c-0.959,0-1.625-0.65-1.625-1.608c0-0.991,0.672-1.642,1.655-1.642c0.625,0,1.109,0.285,1.373,0.854l-0.753,0.313
						c-0.107-0.288-0.337-0.482-0.656-0.482c-0.52,0-0.794,0.496-0.794,0.961c0,0.473,0.284,0.954,0.805,0.954
						c0.341,0,0.605-0.177,0.64-0.528h-0.648v-0.625H70.395z"/>
					<path fill="#FFFFFF" d="M71.711,23.836h-0.793v-3.048h0.793V23.836z"/>
					<path fill="#FFFFFF" d="M74.063,21.575c-0.149-0.124-0.334-0.203-0.528-0.203c-0.142,0-0.338,0.085-0.338,0.255
						c0,0.176,0.213,0.245,0.352,0.291l0.203,0.058c0.423,0.127,0.75,0.341,0.75,0.835c0,0.302-0.072,0.612-0.315,0.817
						c-0.235,0.201-0.557,0.288-0.863,0.288c-0.385,0-0.76-0.127-1.07-0.347l0.338-0.638c0.197,0.172,0.432,0.313,0.704,0.313
						c0.187,0,0.384-0.092,0.384-0.307c0-0.222-0.31-0.3-0.481-0.347c-0.496-0.143-0.823-0.271-0.823-0.861
						c0-0.619,0.439-1.021,1.051-1.021c0.304,0,0.682,0.097,0.951,0.249L74.063,21.575z"/>
					<path fill="#FFFFFF" d="M76.253,23.836H75.46V21.46h-0.655v-0.672h2.1v0.672h-0.651V23.836z"/>
					<path fill="#FFFFFF" d="M78.145,23.836h-0.792v-3.048h0.792V23.836z"/>
					<path fill="#FFFFFF" d="M81.001,21.812c-0.159-0.218-0.424-0.337-0.695-0.337c-0.483,0-0.811,0.371-0.811,0.846
						c0,0.479,0.333,0.829,0.825,0.829c0.257,0,0.517-0.124,0.681-0.324v0.949c-0.263,0.081-0.451,0.141-0.699,0.141
						c-0.422,0-0.827-0.16-1.143-0.448c-0.334-0.304-0.49-0.698-0.49-1.151c0-0.415,0.158-0.813,0.451-1.116
						c0.299-0.307,0.73-0.491,1.162-0.491c0.253,0,0.487,0.057,0.72,0.154V21.812z"/>
					<path fill="#FFFFFF" d="M83.323,21.575c-0.145-0.124-0.332-0.203-0.525-0.203c-0.145,0-0.337,0.085-0.337,0.255
						c0,0.176,0.212,0.245,0.351,0.291l0.203,0.058c0.424,0.127,0.751,0.341,0.751,0.835c0,0.302-0.072,0.612-0.317,0.817
						c-0.236,0.201-0.557,0.288-0.864,0.288c-0.382,0-0.759-0.127-1.071-0.347l0.343-0.638c0.197,0.172,0.429,0.313,0.702,0.313
						c0.185,0,0.383-0.092,0.383-0.307c0-0.222-0.312-0.3-0.48-0.347c-0.497-0.143-0.825-0.271-0.825-0.861
						c0-0.619,0.439-1.021,1.049-1.021c0.307,0,0.684,0.097,0.953,0.249L83.323,21.575z"/>
				</g>
			</g>
		</g>
		<g>
			<g>
				<path fill="#FFFFFF" d="M72.693,9.01c-2.336,0-4.289,1.653-4.757,3.853h-0.088h-1.383l1.465,1.467l0.983,0.98l1.146-1.143
					c-0.012-0.033-0.022-0.065-0.028-0.098c0.005,0.032,0.016,0.064,0.028,0.098l1.304-1.305h-1.243
					c0.408-1.025,1.404-1.752,2.572-1.752c1.324,0,2.429,0.928,2.699,2.17l0.91-0.908l1.247,1.252
					C77.42,11.056,75.295,9.01,72.693,9.01z M70.003,13.977c0.006,0.019,0.015,0.038,0.016,0.056
					C70.018,14.015,70.009,13.995,70.003,13.977z M69.938,13.499c0,0.007,0,0.01,0,0.012C69.938,13.509,69.938,13.506,69.938,13.499
					z M69.944,13.595c0,0.009,0,0.011,0,0.018C69.944,13.605,69.944,13.604,69.944,13.595z M69.957,13.687
					c0,0.011,0.001,0.022,0.001,0.031C69.958,13.709,69.957,13.697,69.957,13.687z M69.972,13.783c0,0.013,0,0.025,0,0.035
					C69.972,13.809,69.972,13.796,69.972,13.783z M69.984,13.882c0.004,0.013,0.009,0.027,0.01,0.045
					C69.993,13.909,69.988,13.895,69.984,13.882z"/>
				<path fill="#FFFFFF" d="M77.549,14.086l-1.247-1.249l-0.91,0.908l-1.54,1.537l0,0h1.22c-0.48,0.814-1.367,1.357-2.379,1.357
					c-1.234,0-2.28-0.807-2.633-1.928l-1.146,1.146l-0.983-0.98c0.463,2.208,2.42,3.862,4.762,3.862
					c2.196,0,4.054-1.454,4.655-3.457h0.12h1.283l0,0L77.549,14.086z"/>
			</g>
		</g>
		<g>
			<g>
				<path fill="#FFFFFF" d="M33.074,21.601c-0.153-0.125-0.343-0.211-0.544-0.211c-0.15,0-0.351,0.091-0.351,0.266
					c0,0.184,0.223,0.256,0.364,0.303l0.209,0.061c0.438,0.13,0.776,0.35,0.776,0.86c0,0.316-0.077,0.64-0.326,0.848
					c-0.248,0.211-0.577,0.302-0.895,0.302c-0.396,0-0.786-0.134-1.104-0.363l0.346-0.658c0.205,0.178,0.448,0.326,0.731,0.326
					c0.188,0,0.393-0.096,0.393-0.32c0-0.229-0.32-0.308-0.496-0.355c-0.515-0.149-0.852-0.282-0.852-0.896
					c0-0.638,0.453-1.056,1.086-1.056c0.318,0,0.707,0.1,0.986,0.262L33.074,21.601z"/>
				<path fill="#FFFFFF" d="M36.089,22.007v-1.219h0.817v3.152h-0.817v-1.289h-1.185v1.289h-0.817v-3.152h0.817v1.219H36.089z"/>
				<path fill="#FFFFFF" d="M38.429,23.94h-0.817v-3.152h0.817V23.94z"/>
				<path fill="#FFFFFF" d="M39.131,20.788h1.256c0.676,0,1.144,0.315,1.144,1.038c0,0.747-0.401,1.069-1.116,1.069h-0.461v1.045
					h-0.823V20.788z M39.954,22.235h0.137c0.296,0,0.588,0,0.588-0.383c0-0.396-0.271-0.401-0.588-0.401h-0.137V22.235z"/>
				<path fill="#FFFFFF" d="M42.063,20.788h1.255c0.679,0,1.143,0.315,1.143,1.038c0,0.747-0.4,1.069-1.112,1.069h-0.465v1.045
					h-0.821V20.788z M42.884,22.235h0.137c0.297,0,0.59,0,0.59-0.383c0-0.396-0.272-0.401-0.59-0.401h-0.137V22.235z"/>
				<path fill="#FFFFFF" d="M45.813,23.94h-0.819v-3.152h0.819V23.94z"/>
				<path fill="#FFFFFF" d="M46.516,20.788h0.818l1.503,1.929h0.005v-1.929h0.821v3.152h-0.821l-1.499-1.931h-0.01v1.931h-0.818
					V20.788z"/>
				<path fill="#FFFFFF" d="M53.513,22.179c-0.01,0.465-0.045,0.854-0.322,1.249c-0.311,0.434-0.775,0.62-1.301,0.62
					c-0.991,0-1.682-0.674-1.682-1.665c0-1.024,0.695-1.701,1.708-1.701c0.648,0,1.152,0.296,1.425,0.885l-0.779,0.329
					c-0.111-0.303-0.349-0.506-0.682-0.506c-0.536,0-0.817,0.517-0.817,0.997c0,0.488,0.292,0.987,0.83,0.987
					c0.356,0,0.629-0.186,0.663-0.546h-0.671v-0.649H53.513z"/>
			</g>
		</g>
		<g>
			<g>
				<path fill="#FFFFFF" d="M35.899,13.704h12.918c0.006,0.057,0.01,0.115,0.01,0.178c0,1.268-1.034,2.301-2.298,2.301h-8.494
					v-0.008c-1.199-0.08-2.146-1.074-2.146-2.293C35.889,13.819,35.892,13.761,35.899,13.704z M44.042,10.54h-3.099v2.9h3.099V10.54
					z M47.77,9.427h-3.104v4.014h3.104V9.427z M40.31,12.133h-3.098v1.308h3.098V12.133z"/>
			</g>
		</g>
		<g>
			<g>
				<g>
					<path fill="#FFFFFF" d="M92.251,22.95l-0.211,0.526h-0.837l1.169-3.037h0.862l1.145,3.037h-0.845L93.34,22.95H92.251z
						 M92.804,21.376h-0.007l-0.326,0.97h0.654L92.804,21.376z"/>
					<path fill="#FFFFFF" d="M95.579,23.477h-0.792v-3.037h0.792V23.477z"/>
					<path fill="#FFFFFF" d="M98.781,23.477h-0.984l-0.744-1.167h-0.008v1.167h-0.792v-3.037h1.18c0.603,0,1.058,0.285,1.058,0.933
						c0,0.421-0.234,0.783-0.668,0.858L98.781,23.477z M97.045,21.803h0.073c0.262,0,0.551-0.051,0.551-0.381
						s-0.289-0.379-0.551-0.379h-0.073V21.803z"/>
					<path fill="#FFFFFF" d="M102.872,21.458c-0.161-0.219-0.423-0.334-0.694-0.334c-0.482,0-0.807,0.369-0.807,0.842
						c0,0.48,0.33,0.826,0.82,0.826c0.258,0,0.515-0.126,0.681-0.321v0.944c-0.263,0.083-0.452,0.144-0.696,0.144
						c-0.424,0-0.827-0.16-1.141-0.446c-0.336-0.305-0.486-0.7-0.486-1.152c0-0.414,0.155-0.813,0.446-1.111
						c0.298-0.304,0.73-0.491,1.155-0.491c0.253,0,0.489,0.057,0.721,0.153V21.458z"/>
					<path fill="#FFFFFF" d="M104.295,22.95l-0.208,0.526h-0.839l1.168-3.037h0.862l1.147,3.037h-0.845l-0.197-0.526H104.295z
						 M104.848,21.376h-0.007l-0.33,0.97h0.658L104.848,21.376z"/>
					<path fill="#FFFFFF" d="M109.358,23.477h-0.984l-0.746-1.167h-0.01v1.167h-0.789v-3.037h1.181c0.601,0,1.058,0.285,1.058,0.933
						c0,0.421-0.238,0.783-0.668,0.858L109.358,23.477z M107.619,21.803h0.079c0.257,0,0.549-0.051,0.549-0.381
						s-0.292-0.379-0.549-0.379h-0.079V21.803z"/>
					<path fill="#FFFFFF" d="M112.762,21.78c-0.005,0.442-0.04,0.821-0.309,1.203c-0.299,0.415-0.746,0.596-1.256,0.596
						c-0.956,0-1.619-0.652-1.619-1.607c0-0.987,0.669-1.635,1.649-1.635c0.627,0,1.109,0.279,1.367,0.852l-0.746,0.315
						c-0.11-0.291-0.342-0.483-0.657-0.483c-0.521,0-0.789,0.493-0.789,0.958c0,0.471,0.28,0.948,0.802,0.948
						c0.34,0,0.604-0.175,0.637-0.524h-0.645V21.78H112.762z"/>
					<path fill="#FFFFFF" d="M116.496,21.901c0,0.984-0.705,1.678-1.68,1.678c-0.976,0-1.682-0.693-1.682-1.678
						c0-0.922,0.807-1.564,1.682-1.564C115.688,20.337,116.496,20.979,116.496,21.901z M113.955,21.903
						c0,0.527,0.389,0.909,0.861,0.909c0.469,0,0.857-0.382,0.857-0.909c0-0.416-0.388-0.8-0.857-0.8
						C114.344,21.104,113.955,21.487,113.955,21.903z"/>
				</g>
			</g>
		</g>
		<g>
			<g>
				<path fill="#FFFFFF" d="M110.748,11.806l-3.281,0.927l-6.625-1.582l-0.9,0.258l4.156,2.276l-4.797,1.359l-1.256-0.399
					l-1.808,0.51l0.958,0.515c-0.008,0.004-0.008,0.004-0.015,0.006l0.135,0.06l0.145,0.079l0.009-0.007l2.21,1.038l11.568-3.269
					c0.445-0.128,0.702-0.592,0.577-1.038l-0.044-0.147C111.654,11.941,111.189,11.68,110.748,11.806z"/>
				<path fill="#FFFFFF" d="M111.309,13.806l-11.651,3.297l-2.958-1.39l0.026-0.018l-1.123-0.611l2.441-0.689l1.258,0.399
					l4.166-1.178l-4.155-2.281l1.523-0.436l0.064,0.018l6.562,1.57l3.215-0.908c0.575-0.163,1.175,0.17,1.334,0.743l0.044,0.151
					C112.216,13.05,111.885,13.646,111.309,13.806z M99.699,16.591l11.479-3.246c0.315-0.091,0.506-0.425,0.417-0.742l-0.044-0.149
					c-0.091-0.322-0.426-0.503-0.74-0.415l-3.337,0.946l-0.06-0.015l-6.567-1.574l-0.275,0.081l4.155,2.282l-5.429,1.537
					l-1.26-0.403l-1.171,0.331l0.707,0.368L99.699,16.591z"/>
			</g>
		</g>
		<rect x="56.795" y="9.427" fill="#FFFFFF" width="0.297" height="16.955"/>
		<rect x="87.455" y="9.427" fill="#FFFFFF" width="0.299" height="16.955"/>
	</g>
	<g>
		<path fill="#FFFFFF" d="M16.708,15.317c-0.475,0-0.853,0.381-0.853,0.85c0,0.473,0.378,0.852,0.853,0.852s0.852-0.379,0.852-0.852
			C17.56,15.698,17.182,15.317,16.708,15.317z M16.708,16.798c-0.37,0-0.629-0.252-0.629-0.631s0.259-0.627,0.629-0.627
			c0.364,0,0.63,0.248,0.63,0.627S17.071,16.798,16.708,16.798z"/>
		<path fill="#FFFFFF" d="M16.889,16.235c0.114-0.011,0.201-0.091,0.201-0.244c0-0.207-0.114-0.271-0.303-0.271h-0.432v0.893h0.187
			v-0.378h0.146l0.199,0.378h0.218L16.889,16.235z M16.746,16.065h-0.204V15.89h0.204c0.093,0,0.174,0,0.174,0.077
			C16.919,16.065,16.838,16.065,16.746,16.065z"/>
		<path fill="#FFFFFF" d="M14.089,16.596c-0.263-0.384-0.467-0.635-0.643-0.881v-0.107c1.78-0.592,2.546-1.431,2.546-3.419
			c0-3.312-2.511-4.569-5.476-4.569H4.745v13.152h4.672v-4.221h0.089l2.092,4.221h5.51L14.089,16.596z M9.75,13.445H9.417v-2.233
			h0.368c0.819,0,1.534,0.124,1.534,1.133C11.319,13.321,10.535,13.445,9.75,13.445z"/>
	</g>
	<path fill="#FFFFFF" d="M4.504,22.528h0.693c0.357,0,0.658,0.151,0.658,0.549c0,0.239-0.091,0.341-0.306,0.413v0.011
		c0.03,0.025,0.065,0.049,0.096,0.096L5.99,24.11H5.327l-0.251-0.508h-0.01v0.508H4.504V22.528z M5.065,23.229h0.039
		c0.095,0,0.19-0.014,0.19-0.132c0-0.122-0.086-0.137-0.186-0.137H5.065V23.229z M6.119,22.528h1.063v0.432H6.697v0.151h0.443v0.41
		H6.697v0.157h0.502v0.432h-1.08V22.528z M7.437,22.528h0.727c0.369,0,0.643,0.189,0.643,0.58c0,0.324-0.202,0.524-0.523,0.524
		H7.991v0.478H7.437V22.528z M7.991,23.235h0.056c0.1,0,0.209-0.018,0.209-0.145c0-0.124-0.117-0.131-0.212-0.131H7.991V23.235z
		 M8.927,22.528h0.694c0.356,0,0.658,0.151,0.658,0.549c0,0.239-0.092,0.341-0.307,0.413v0.011c0.029,0.025,0.065,0.049,0.097,0.096
		l0.344,0.514H9.751L9.5,23.603H9.489v0.508H8.927V22.528z M9.489,23.229h0.041c0.094,0,0.189-0.014,0.189-0.132
		c0-0.122-0.086-0.137-0.185-0.137H9.489V23.229z M10.543,22.528h1.063v0.432h-0.484v0.151h0.443v0.41h-0.443v0.157h0.501v0.432
		h-1.08V22.528z M12.088,22.528h0.592l0.217,0.831h0.015c0.01-0.069,0.021-0.144,0.04-0.21l0.179-0.621h0.585l0.259,1.582H13.42
		l-0.079-0.866h-0.01c-0.01,0.052-0.021,0.106-0.037,0.158l-0.229,0.708h-0.336l-0.206-0.67c-0.017-0.066-0.031-0.13-0.035-0.196
		H12.47c-0.005,0.062-0.009,0.128-0.015,0.189l-0.068,0.677h-0.556L12.088,22.528z M14.708,24.11h-0.608l0.55-1.582h0.636
		l0.563,1.582H15.24l-0.052-0.197h-0.434L14.708,24.11z M15.087,23.537l-0.067-0.279c-0.017-0.067-0.027-0.135-0.037-0.203h-0.022
		l-0.104,0.482H15.087z M15.968,22.528h0.696c0.356,0,0.657,0.151,0.657,0.549c0,0.239-0.091,0.341-0.305,0.413v0.011
		c0.029,0.025,0.064,0.049,0.096,0.096l0.345,0.514h-0.663l-0.251-0.508H16.53v0.508h-0.562V22.528z M16.53,23.229h0.041
		c0.094,0,0.188-0.014,0.188-0.132c0-0.122-0.085-0.137-0.185-0.137H16.53V23.229z M17.46,23.447c0-0.095,0.074-0.171,0.17-0.171
		s0.17,0.076,0.17,0.171s-0.075,0.17-0.17,0.17S17.46,23.542,17.46,23.447z M17.757,23.447c0-0.077-0.053-0.126-0.126-0.126
		s-0.126,0.049-0.126,0.126c0,0.075,0.053,0.126,0.126,0.126S17.757,23.522,17.757,23.447z M17.71,23.536h-0.045l-0.038-0.076
		h-0.029v0.076H17.56v-0.179h0.086c0.039,0,0.061,0.013,0.061,0.054c0,0.031-0.018,0.046-0.041,0.049L17.71,23.536z M17.639,23.427
		c0.018,0,0.035,0,0.035-0.021c0-0.015-0.017-0.015-0.035-0.015h-0.041v0.035H17.639z"/>
</g>
</svg>
